<mxfile host="Electron" agent="Mozilla/5.0 (Windows NT 10.0; Win64; x64) AppleWebKit/537.36 (KHTML, like Gecko) draw.io/28.0.6 Chrome/138.0.7204.100 Electron/37.2.3 Safari/537.36" version="28.0.6">
  <diagram name="PÃ¡gina-1" id="f2wU5W7E1UGJNHeA32Kq">
    <mxGraphModel dx="983" dy="663" grid="1" gridSize="10" guides="1" tooltips="1" connect="1" arrows="1" fold="1" page="1" pageScale="1" pageWidth="827" pageHeight="1169" math="0" shadow="0">
      <root>
        <mxCell id="0" />
        <mxCell id="1" parent="0" />
        <mxCell id="VACb2kfsFQPtyyKpTamA-1" value="&lt;h1 style=&quot;margin-top: 0px;&quot;&gt;Object and Variables&lt;/h1&gt;&lt;p&gt;Data is moved, processed and store by the programs. Data can be stored in RAM or CPU Registry. The location in memory in Cpp is an object. Depending of the data Type the space will be big or small. In a program we use variables that points to an object and can be identifed by a name. To declarete a variable you indicate the Type and the name, once the program starts it will allocated in RAM or CPU. A variable can be initialize by 4 ways.&lt;/p&gt;" style="text;html=1;whiteSpace=wrap;overflow=hidden;rounded=0;" parent="1" vertex="1">
          <mxGeometry x="50" y="50" width="300" height="190" as="geometry" />
        </mxCell>
        <mxCell id="VACb2kfsFQPtyyKpTamA-2" value="Data" style="rounded=1;whiteSpace=wrap;html=1;" parent="1" vertex="1">
          <mxGeometry x="40" y="270" width="80" height="50" as="geometry" />
        </mxCell>
        <mxCell id="VACb2kfsFQPtyyKpTamA-3" value="Object" style="rounded=1;whiteSpace=wrap;html=1;" parent="1" vertex="1">
          <mxGeometry x="160" y="270" width="80" height="50" as="geometry" />
        </mxCell>
        <mxCell id="VACb2kfsFQPtyyKpTamA-4" value="Variable" style="rounded=1;whiteSpace=wrap;html=1;" parent="1" vertex="1">
          <mxGeometry x="160" y="360" width="80" height="50" as="geometry" />
        </mxCell>
        <mxCell id="VACb2kfsFQPtyyKpTamA-5" value="Identifier" style="rounded=1;whiteSpace=wrap;html=1;" parent="1" vertex="1">
          <mxGeometry x="160" y="450" width="80" height="50" as="geometry" />
        </mxCell>
        <mxCell id="VACb2kfsFQPtyyKpTamA-6" value="Assignation" style="rounded=1;whiteSpace=wrap;html=1;" parent="1" vertex="1">
          <mxGeometry x="280" y="360" width="80" height="50" as="geometry" />
        </mxCell>
        <mxCell id="VACb2kfsFQPtyyKpTamA-7" value="Declaration" style="rounded=1;whiteSpace=wrap;html=1;" parent="1" vertex="1">
          <mxGeometry x="280" y="270" width="80" height="50" as="geometry" />
        </mxCell>
        <mxCell id="VACb2kfsFQPtyyKpTamA-28" style="edgeStyle=orthogonalEdgeStyle;rounded=0;orthogonalLoop=1;jettySize=auto;html=1;entryX=0;entryY=0.5;entryDx=0;entryDy=0;" parent="1" source="VACb2kfsFQPtyyKpTamA-8" target="VACb2kfsFQPtyyKpTamA-14" edge="1">
          <mxGeometry relative="1" as="geometry">
            <Array as="points">
              <mxPoint x="550" y="385" />
              <mxPoint x="550" y="335" />
            </Array>
          </mxGeometry>
        </mxCell>
        <mxCell id="VACb2kfsFQPtyyKpTamA-29" style="edgeStyle=orthogonalEdgeStyle;rounded=0;orthogonalLoop=1;jettySize=auto;html=1;entryX=0;entryY=0.5;entryDx=0;entryDy=0;" parent="1" source="VACb2kfsFQPtyyKpTamA-8" target="VACb2kfsFQPtyyKpTamA-15" edge="1">
          <mxGeometry relative="1" as="geometry">
            <Array as="points">
              <mxPoint x="550" y="385" />
              <mxPoint x="550" y="425" />
            </Array>
          </mxGeometry>
        </mxCell>
        <mxCell id="Kx3pjjUZt-1SH8SQFW_k-3" style="edgeStyle=orthogonalEdgeStyle;rounded=0;orthogonalLoop=1;jettySize=auto;html=1;entryX=0;entryY=0.5;entryDx=0;entryDy=0;" edge="1" parent="1" source="VACb2kfsFQPtyyKpTamA-8" target="Kx3pjjUZt-1SH8SQFW_k-2">
          <mxGeometry relative="1" as="geometry" />
        </mxCell>
        <mxCell id="VACb2kfsFQPtyyKpTamA-8" value="Inicialization" style="rounded=1;whiteSpace=wrap;html=1;" parent="1" vertex="1">
          <mxGeometry x="390" y="360" width="80" height="50" as="geometry" />
        </mxCell>
        <mxCell id="VACb2kfsFQPtyyKpTamA-9" value="RAM" style="shape=cylinder3;whiteSpace=wrap;html=1;boundedLbl=1;backgroundOutline=1;size=15;" parent="1" vertex="1">
          <mxGeometry x="40" y="530" width="60" height="80" as="geometry" />
        </mxCell>
        <mxCell id="VACb2kfsFQPtyyKpTamA-10" value="Allocation" style="rounded=1;whiteSpace=wrap;html=1;" parent="1" vertex="1">
          <mxGeometry x="390" y="270" width="80" height="50" as="geometry" />
        </mxCell>
        <mxCell id="VACb2kfsFQPtyyKpTamA-11" value="Data Type" style="rounded=1;whiteSpace=wrap;html=1;" parent="1" vertex="1">
          <mxGeometry x="40" y="360" width="80" height="50" as="geometry" />
        </mxCell>
        <mxCell id="VACb2kfsFQPtyyKpTamA-12" value="Value" style="rounded=1;whiteSpace=wrap;html=1;" parent="1" vertex="1">
          <mxGeometry x="40" y="450" width="80" height="50" as="geometry" />
        </mxCell>
        <mxCell id="VACb2kfsFQPtyyKpTamA-13" value="CPU Registry" style="shape=or;whiteSpace=wrap;html=1;" parent="1" vertex="1">
          <mxGeometry x="140" y="530" width="60" height="80" as="geometry" />
        </mxCell>
        <mxCell id="VACb2kfsFQPtyyKpTamA-26" style="edgeStyle=orthogonalEdgeStyle;rounded=0;orthogonalLoop=1;jettySize=auto;html=1;" parent="1" source="VACb2kfsFQPtyyKpTamA-14" target="VACb2kfsFQPtyyKpTamA-16" edge="1">
          <mxGeometry relative="1" as="geometry" />
        </mxCell>
        <mxCell id="VACb2kfsFQPtyyKpTamA-27" style="edgeStyle=orthogonalEdgeStyle;rounded=0;orthogonalLoop=1;jettySize=auto;html=1;" parent="1" source="VACb2kfsFQPtyyKpTamA-14" target="VACb2kfsFQPtyyKpTamA-18" edge="1">
          <mxGeometry relative="1" as="geometry" />
        </mxCell>
        <mxCell id="VACb2kfsFQPtyyKpTamA-14" value="Traditional" style="text;html=1;align=center;verticalAlign=middle;whiteSpace=wrap;rounded=0;" parent="1" vertex="1">
          <mxGeometry x="570" y="320" width="60" height="30" as="geometry" />
        </mxCell>
        <mxCell id="VACb2kfsFQPtyyKpTamA-24" style="edgeStyle=orthogonalEdgeStyle;rounded=0;orthogonalLoop=1;jettySize=auto;html=1;" parent="1" source="VACb2kfsFQPtyyKpTamA-15" target="VACb2kfsFQPtyyKpTamA-20" edge="1">
          <mxGeometry relative="1" as="geometry" />
        </mxCell>
        <mxCell id="VACb2kfsFQPtyyKpTamA-25" style="edgeStyle=orthogonalEdgeStyle;rounded=0;orthogonalLoop=1;jettySize=auto;html=1;" parent="1" source="VACb2kfsFQPtyyKpTamA-15" target="VACb2kfsFQPtyyKpTamA-22" edge="1">
          <mxGeometry relative="1" as="geometry" />
        </mxCell>
        <mxCell id="VACb2kfsFQPtyyKpTamA-15" value="Modern" style="text;html=1;align=center;verticalAlign=middle;whiteSpace=wrap;rounded=0;" parent="1" vertex="1">
          <mxGeometry x="570" y="410" width="60" height="30" as="geometry" />
        </mxCell>
        <mxCell id="VACb2kfsFQPtyyKpTamA-16" value="Copy-initialization" style="text;html=1;align=center;verticalAlign=middle;whiteSpace=wrap;rounded=0;" parent="1" vertex="1">
          <mxGeometry x="670" y="300" width="60" height="30" as="geometry" />
        </mxCell>
        <mxCell id="VACb2kfsFQPtyyKpTamA-17" value="int i = 1" style="text;html=1;align=center;verticalAlign=middle;whiteSpace=wrap;rounded=0;" parent="1" vertex="1">
          <mxGeometry x="750" y="300" width="60" height="30" as="geometry" />
        </mxCell>
        <mxCell id="VACb2kfsFQPtyyKpTamA-18" value="direct-initialization" style="text;html=1;align=center;verticalAlign=middle;whiteSpace=wrap;rounded=0;" parent="1" vertex="1">
          <mxGeometry x="670" y="340" width="60" height="30" as="geometry" />
        </mxCell>
        <mxCell id="VACb2kfsFQPtyyKpTamA-19" value="int i (1)" style="text;html=1;align=center;verticalAlign=middle;whiteSpace=wrap;rounded=0;" parent="1" vertex="1">
          <mxGeometry x="750" y="340" width="60" height="30" as="geometry" />
        </mxCell>
        <mxCell id="VACb2kfsFQPtyyKpTamA-20" value="direct-list-initialization" style="text;html=1;align=center;verticalAlign=middle;whiteSpace=wrap;rounded=0;" parent="1" vertex="1">
          <mxGeometry x="670" y="390" width="60" height="30" as="geometry" />
        </mxCell>
        <mxCell id="VACb2kfsFQPtyyKpTamA-21" value="int i {1}" style="text;html=1;align=center;verticalAlign=middle;whiteSpace=wrap;rounded=0;" parent="1" vertex="1">
          <mxGeometry x="750" y="390" width="60" height="30" as="geometry" />
        </mxCell>
        <mxCell id="VACb2kfsFQPtyyKpTamA-22" value="value-initialization" style="text;html=1;align=center;verticalAlign=middle;whiteSpace=wrap;rounded=0;" parent="1" vertex="1">
          <mxGeometry x="670" y="430" width="60" height="30" as="geometry" />
        </mxCell>
        <mxCell id="VACb2kfsFQPtyyKpTamA-23" value="int i {}" style="text;html=1;align=center;verticalAlign=middle;whiteSpace=wrap;rounded=0;" parent="1" vertex="1">
          <mxGeometry x="750" y="430" width="60" height="30" as="geometry" />
        </mxCell>
        <mxCell id="Kx3pjjUZt-1SH8SQFW_k-1" value="&lt;b&gt;&lt;u&gt;&lt;font style=&quot;color: rgb(255, 102, 102);&quot;&gt;DO NOT&lt;/font&gt;&lt;/u&gt;&lt;/b&gt; use global variables unless is for constants. It is better to pass down local variables as parameters, so:&lt;div&gt;&lt;ul&gt;&lt;li&gt;the flow is known&lt;/li&gt;&lt;li&gt;the documentation in focused&amp;nbsp;&lt;/li&gt;&lt;li style=&quot;&quot;&gt;it minimizes errors for assignations out of control.&lt;/li&gt;&lt;/ul&gt;&lt;/div&gt;" style="text;html=1;align=left;verticalAlign=top;whiteSpace=wrap;rounded=0;" vertex="1" parent="1">
          <mxGeometry x="430" y="490" width="260" height="140" as="geometry" />
        </mxCell>
        <mxCell id="Kx3pjjUZt-1SH8SQFW_k-5" value="" style="edgeStyle=orthogonalEdgeStyle;rounded=0;orthogonalLoop=1;jettySize=auto;html=1;" edge="1" parent="1" source="Kx3pjjUZt-1SH8SQFW_k-2" target="Kx3pjjUZt-1SH8SQFW_k-4">
          <mxGeometry relative="1" as="geometry" />
        </mxCell>
        <mxCell id="Kx3pjjUZt-1SH8SQFW_k-2" value="default" style="text;html=1;align=center;verticalAlign=middle;whiteSpace=wrap;rounded=0;" vertex="1" parent="1">
          <mxGeometry x="570" y="230" width="60" height="30" as="geometry" />
        </mxCell>
        <mxCell id="Kx3pjjUZt-1SH8SQFW_k-4" value="without assignation. the value is unknown, or also called garbage value." style="text;html=1;align=center;verticalAlign=middle;whiteSpace=wrap;rounded=0;" vertex="1" parent="1">
          <mxGeometry x="700" y="205" width="100" height="80" as="geometry" />
        </mxCell>
        <mxCell id="Kx3pjjUZt-1SH8SQFW_k-6" value="&lt;font style=&quot;font-size: 14px; color: rgb(255, 179, 102);&quot;&gt;Narrowing conversion&lt;/font&gt;:&amp;nbsp;&lt;div&gt;casting one type to another that doesn&#39;t support all possible values the second type can have, for example decimal to int is a narrowing conversion..&lt;/div&gt;" style="text;html=1;align=left;verticalAlign=top;whiteSpace=wrap;rounded=0;" vertex="1" parent="1">
          <mxGeometry x="860" y="240" width="180" height="100" as="geometry" />
        </mxCell>
        <mxCell id="Kx3pjjUZt-1SH8SQFW_k-7" value="&lt;font style=&quot;font-size: 14px; color: rgb(255, 179, 102);&quot;&gt;Widening conversion&lt;/font&gt;:&amp;nbsp;&lt;div&gt;casting one type to another that does support all possible values the second type can have, for example decimal to int is a narrowing conversion..&lt;/div&gt;" style="text;html=1;align=left;verticalAlign=top;whiteSpace=wrap;rounded=0;" vertex="1" parent="1">
          <mxGeometry x="860" y="350" width="180" height="100" as="geometry" />
        </mxCell>
      </root>
    </mxGraphModel>
  </diagram>
</mxfile>
